<?xml version="1.0" encoding="utf-8"?>
<!-- Generator: Adobe Illustrator 27.2.0, SVG Export Plug-In . SVG Version: 6.00 Build 0)  -->
<svg version="1.1" id="Layer_1" xmlns="http://www.w3.org/2000/svg" xmlns:xlink="http://www.w3.org/1999/xlink" x="0px" y="0px"
	 viewBox="0 0 114 22.2" style="enable-background:new 0 0 114 22.2;" xml:space="preserve">
<style type="text/css">
	.st0{fill:#FFFFFF;}
</style>
<g>
	<rect y="1.7" class="st0" width="1.6" height="1.4"/>
	<rect x="1.6" y="3" class="st0" width="2.9" height="2.5"/>
	<rect x="4.4" y="5.6" class="st0" width="6.3" height="11.1"/>
	<rect x="10.7" y="11.1" class="st0" width="6.3" height="11.1"/>
	<rect x="17" class="st0" width="6.3" height="11.1"/>
	<rect x="10.7" class="st0" width="6.3" height="5.6"/>
	<rect x="17" y="16.7" class="st0" width="6.3" height="5.6"/>
	<rect x="23.3" y="11.1" class="st0" width="6.3" height="5.6"/>
	<rect x="29.6" y="16.7" class="st0" width="2.6" height="2.3"/>
	<rect x="32.2" y="19" class="st0" width="1.6" height="1.4"/>
	<g>
		<path class="st0" d="M100.7,12.7L94,3.9h6.4l3.4,5.4l3.5-5.4h6.4l-6.7,8.8l7,9.2h-6.4l-3.8-5.9l-3.8,5.9h-6.4L100.7,12.7
			L100.7,12.7z"/>
		<path class="st0" d="M73.2,3.5c0.2,0,0.3,0,0.5,0c0.2,0,0.4,0,0.5,0c0.2,0,0.3,0,0.5,0c0.2,0,0.3,0,0.3,0v4.6
			c-0.1,0-0.2,0-0.4-0.1c-0.2,0-0.4,0-0.6,0c-0.2,0-0.4,0-0.6,0c-0.2,0-0.3,0-0.5,0c-0.7,0-1.4,0.1-2,0.2c-0.6,0.2-1.1,0.4-1.6,0.8
			c-0.4,0.4-0.8,0.8-1,1.4c-0.2,0.6-0.4,1.3-0.4,2.1v9.2h-5.6V3.8h4.3l0.8,2.7h0.3c0.3-0.5,0.6-0.9,1-1.3s0.7-0.7,1.1-1
			c0.4-0.3,0.9-0.5,1.4-0.6C71.9,3.6,72.5,3.5,73.2,3.5L73.2,3.5z"/>
		<path class="st0" d="M46.6,21.9L39.3,3.9h5.9l3.4,10.3c0.2,0.6,0.4,1.3,0.5,1.9c0.2,0.7,0.3,1.3,0.3,1.8h0.1
			c0-0.6,0.1-1.2,0.3-1.8c0.2-0.6,0.3-1.3,0.6-1.9l3.4-10.3h5.9l-7.3,18.1L46.6,21.9L46.6,21.9z"/>
		<path class="st0" d="M88,18.3c0.6,0,1.1-0.1,1.6-0.2c0.5-0.1,1-0.2,1.5-0.4v3.7c-0.5,0.2-1.2,0.4-2,0.6c-0.8,0.2-1.6,0.2-2.5,0.2
			s-1.7-0.1-2.5-0.3c-0.8-0.2-1.4-0.5-2-1c-0.6-0.5-1-1.1-1.3-1.8c-0.3-0.8-0.5-1.7-0.5-2.9V7.5h-2.7V5.5l3.1-1.7L82.3,0h3.6v3.8h5
			v3.7h-5v8.7c0,0.7,0.2,1.2,0.6,1.6S87.4,18.3,88,18.3L88,18.3z"/>
	</g>
</g>
</svg>
