<?xml version="1.0" encoding="UTF-8"?>
<svg id="Layer_1" data-name="Layer 1" xmlns="http://www.w3.org/2000/svg" viewBox="0 0 114 120">
  <defs>
    <style>
      .cls-1 {
        fill: #fff;
      }
    </style>
  </defs>
  <rect class="cls-1" y="5.6" width="5.24" height="4.64"/>
  <rect class="cls-1" x="5.24" y="10.24" width="9.64" height="8.53"/>
  <rect class="cls-1" x="14.88" y="18.76" width="21.29" height="37.52"/>
  <rect class="cls-1" x="35.96" y="37.52" width="21.29" height="37.52"/>
  <rect class="cls-1" x="57.24" width="21.29" height="37.52"/>
  <rect class="cls-1" x="35.96" width="21.29" height="18.76"/>
  <rect class="cls-1" x="57.24" y="56.28" width="21.29" height="18.76"/>
  <rect class="cls-1" x="78.53" y="37.52" width="21.29" height="18.76"/>
  <rect class="cls-1" x="99.82" y="56.28" width="8.82" height="7.78"/>
  <rect class="cls-1" x="108.64" y="64.06" width="5.36" height="4.73"/>
  <path class="cls-1" d="m93.62,105.42l-10.15-13.5h9.75l5.24,8.29,5.33-8.29h9.75l-10.29,13.5,10.74,14.09h-9.75l-5.78-8.93-5.78,8.93h-9.75l10.68-14.09Z"/>
  <path class="cls-1" d="m51.78,91.4c.23,0,.47,0,.73.02.28,0,.54.02.79.05.26.02.5.04.7.07.23.02.39.04.51.07v7.06c-.15-.03-.36-.07-.62-.1-.26-.03-.54-.06-.85-.07-.28-.03-.56-.05-.85-.05-.28-.02-.52-.02-.7-.02-1.11,0-2.13.12-3.07.37-.92.25-1.72.65-2.4,1.21-.66.54-1.17,1.27-1.55,2.17-.36.89-.54,1.98-.54,3.28v14.04h-8.6v-27.59h6.51l1.27,4.15h.42c.45-.71.94-1.35,1.47-1.92s1.11-1.06,1.75-1.46c.66-.41,1.39-.72,2.2-.94.83-.23,1.77-.35,2.82-.35Z"/>
  <path class="cls-1" d="m11.13,119.51L0,91.92h8.99l5.21,15.72c.32.94.59,1.92.82,2.94.24,1,.39,1.91.45,2.71h.17c.06-.87.2-1.79.42-2.76.24-.99.53-1.95.85-2.89l5.19-15.72h9.02l-11.13,27.59h-8.85Z"/>
  <path class="cls-1" d="m74.31,114c.85,0,1.64-.08,2.4-.25.77-.17,1.55-.37,2.34-.62v5.6c-.81.36-1.81.66-3.02.89-1.18.25-2.48.37-3.89.37s-2.65-.14-3.83-.42c-1.18-.28-2.21-.76-3.07-1.46-.86-.71-1.55-1.64-2.06-2.81-.49-1.18-.73-2.67-.73-4.44v-13.3h-4.11v-3.18l4.73-2.52,2.48-5.82h5.5v5.87h7.67v5.65h-7.67v13.3c0,1.07.3,1.86.9,2.37.6.51,1.39.76,2.37.76Z"/>
</svg>