<svg width="87" height="91" viewBox="0 0 87 91" fill="none" xmlns="http://www.w3.org/2000/svg">
<rect x="0.786041" y="4.76819" width="3.94577" height="3.48986" fill="#D946EF"/>
<rect x="4.73178" y="8.25806" width="7.25379" height="6.41565" fill="#D946EF"/>
<rect x="11.9856" y="14.6737" width="16.0181" height="28.236" fill="#D946EF"/>
<rect x="27.8456" y="28.7916" width="16.0181" height="28.236" fill="#D946EF"/>
<rect x="43.8637" y="0.555664" width="16.0181" height="28.236" fill="#D946EF"/>
<rect x="27.8456" y="0.555664" width="16.0181" height="14.118" fill="#D946EF"/>
<rect x="43.8637" y="42.9097" width="16.0181" height="14.118" fill="#D946EF"/>
<rect x="59.8818" y="28.7916" width="16.0181" height="14.118" fill="#D946EF"/>
<rect x="75.9" y="42.9097" width="6.63915" height="5.85159" fill="#D946EF"/>
<rect x="82.5391" y="48.7614" width="4.03484" height="3.55621" fill="#D946EF"/>
<path d="M71.2405 79.8851L63.6056 69.7284H70.9436L74.8883 75.9673L78.8966 69.7284H86.2346L78.4937 79.8851L86.5739 90.4875H79.2359L74.8883 83.7658L70.5406 90.4875H63.2027L71.2405 79.8851Z" fill="#D946EF"/>
<path d="M39.7496 69.3385C39.9193 69.3385 40.1031 69.3447 40.301 69.3571C40.5131 69.3571 40.711 69.3694 40.8948 69.3942C41.0928 69.4066 41.2695 69.4252 41.425 69.4499C41.5947 69.4623 41.7219 69.4809 41.8068 69.5056V74.8161C41.6937 74.7913 41.5381 74.7666 41.3402 74.7418C41.1423 74.717 40.9302 74.6985 40.704 74.6861C40.4919 74.6613 40.2798 74.649 40.0677 74.649C39.8556 74.6366 39.6789 74.6304 39.5375 74.6304C38.7033 74.6304 37.9328 74.7232 37.2258 74.9089C36.533 75.0946 35.9321 75.3979 35.4232 75.8188C34.9283 76.2272 34.5395 76.7719 34.2567 77.4527C33.9881 78.1212 33.8538 78.9444 33.8538 79.9223V90.4875H27.3853V69.7284H32.2844L33.2387 72.8479H33.5568C33.8962 72.3156 34.2638 71.8328 34.6597 71.3996C35.0555 70.9663 35.4938 70.6011 35.9746 70.304C36.4694 69.9946 37.0208 69.7594 37.6288 69.5985C38.2509 69.4252 38.9578 69.3385 39.7496 69.3385Z" fill="#D946EF"/>
<path d="M9.16321 90.4875L0.786026 69.7284H7.55139L11.4749 81.5562C11.7152 82.2618 11.9203 82.9984 12.0899 83.7658C12.2737 84.5209 12.3868 85.2018 12.4292 85.8083H12.5565C12.5989 85.1523 12.705 84.459 12.8746 83.7287C13.0584 82.986 13.2705 82.2618 13.5109 81.5562L17.4131 69.7284H24.1997L15.8225 90.4875H9.16321Z" fill="#D946EF"/>
<path d="M56.7089 86.3468C57.3452 86.3468 57.9461 86.2849 58.5116 86.1611C59.0913 86.0373 59.6781 85.8826 60.2719 85.6969V89.9119C59.6639 90.1842 58.9075 90.407 58.0026 90.5803C57.1119 90.766 56.1363 90.8588 55.0759 90.8588C54.0438 90.8588 53.0823 90.7536 52.1916 90.5432C51.3009 90.3328 50.5303 89.9676 49.8799 89.4477C49.2296 88.9154 48.7135 88.2098 48.3317 87.3309C47.9641 86.4396 47.7803 85.3256 47.7803 83.9887V73.9805H44.684V71.5852L48.2469 69.6913L50.1132 65.3092H54.2488V69.7284H60.0174V73.9805H54.2488V83.9887C54.2488 84.7933 54.475 85.3875 54.9274 85.7712C55.3799 86.1549 55.9737 86.3468 56.7089 86.3468Z" fill="#D946EF"/>
</svg>
